<svg width="48" height="48" viewBox="0 0 48 48" fill="none" xmlns="http://www.w3.org/2000/svg">
<mask id="mask0_6_3674" style="mask-type:alpha" maskUnits="userSpaceOnUse" x="0" y="0" width="48" height="48">
<rect width="48" height="48" fill="#D9D9D9"/>
</mask>
<g mask="url(#mask0_6_3674)">
<path d="M43.25 38.95L27.2001 22.9H41V16.45H20.75L12.3 7.99995H41C41.8 7.99995 42.5 8.29995 43.1 8.89995C43.7 9.49995 44 10.2 44 11V37C44 37.3666 43.9334 37.7166 43.8 38.0499C43.6667 38.3833 43.4834 38.6833 43.25 38.95ZM7.00005 22.9H18.6L12.15 16.45H7.00005V22.9ZM40.6501 44.95L35.7001 40H7.00005C6.20005 40 5.50005 39.6999 4.90005 39.0999C4.30005 38.5 4.00005 37.7999 4.00005 37V11C4.00005 10.2 4.30005 9.49995 4.90005 8.89995C5.50005 8.29995 6.20005 7.99995 7.00005 7.99995H8.00005L11 11H6.70005L1.30005 5.59995L3.45005 3.44995L42.8 42.7999L40.6501 44.95Z" fill="white"/>
</g>
</svg>
