<svg width="48" height="48" viewBox="0 0 48 48" fill="none" xmlns="http://www.w3.org/2000/svg">
<mask id="mask0_6_3680" style="mask-type:alpha" maskUnits="userSpaceOnUse" x="0" y="0" width="48" height="48">
<rect width="48" height="48" fill="#D9D9D9"/>
</mask>
<g mask="url(#mask0_6_3680)">
<path d="M24.2 42C24.4667 42 24.7 41.9667 24.9 41.9C25.1 41.8333 25.3333 41.6667 25.6 41.4L42.25 24.7C42.8167 24.1333 43.25 23.5083 43.55 22.825C43.85 22.1417 44 21.4667 44 20.8C44 19.8333 43.8583 18.9833 43.575 18.25C43.2917 17.5167 42.85 16.85 42.25 16.25L33.8 7.75C33.2 7.15 32.5333 6.70833 31.8 6.425C31.0667 6.14167 30.2667 6 29.4 6C28.7 6 28 6.14167 27.3 6.425C26.6 6.70833 25.9667 7.11667 25.4 7.65L25.1 8L34.05 16.95C34.4833 17.3833 34.7917 17.825 34.975 18.275C35.1583 18.725 35.25 19.1833 35.25 19.65C35.25 20.8167 34.8833 21.7417 34.15 22.425C33.4167 23.1083 32.5167 23.45 31.45 23.45C30.8167 23.45 30.275 23.325 29.825 23.075C29.375 22.825 28.9667 22.5167 28.6 22.15L22.25 15.8L11.1 26.95C10.9 27.15 10.75 27.3667 10.65 27.6C10.55 27.8333 10.5 28.0833 10.5 28.35C10.5 28.9167 10.6917 29.3833 11.075 29.75C11.4583 30.1167 11.9333 30.3 12.5 30.3C12.8333 30.3 13.1167 30.25 13.35 30.15C13.5833 30.05 13.7833 29.9167 13.95 29.75L23.15 20.5L24.2 21.55L14.95 30.8C14.75 31 14.6 31.2167 14.5 31.45C14.4 31.6833 14.35 31.9333 14.35 32.2C14.35 32.7333 14.55 33.2 14.95 33.6C15.35 34 15.8167 34.2 16.35 34.2C16.65 34.2 16.9167 34.15 17.15 34.05C17.3833 33.95 17.6 33.8 17.8 33.6L27.05 24.4L28.1 25.45L18.85 34.7C18.6833 34.8667 18.55 35.0583 18.45 35.275C18.35 35.4917 18.3 35.7667 18.3 36.1C18.3 36.6667 18.4917 37.1417 18.875 37.525C19.2583 37.9083 19.7333 38.1 20.3 38.1C20.5667 38.1 20.8167 38.05 21.05 37.95C21.2833 37.85 21.5 37.7 21.7 37.5L30.95 28.25L32 29.3L22.75 38.55C22.55 38.75 22.4 38.975 22.3 39.225C22.2 39.475 22.15 39.7167 22.15 39.95C22.15 40.5167 22.35 41 22.75 41.4C23.15 41.8 23.6333 42 24.2 42ZM8.45 27.4L22.2 13.65L29.6 21.05C29.9 21.35 30.2083 21.575 30.525 21.725C30.8417 21.875 31.15 21.95 31.45 21.95C32.1167 21.95 32.6667 21.7333 33.1 21.3C33.5333 20.8667 33.75 20.3167 33.75 19.65C33.75 19.3833 33.6917 19.1167 33.575 18.85C33.4583 18.5833 33.25 18.3 32.95 18L22.7 7.75C22.0333 7.08333 21.35 6.625 20.65 6.375C19.95 6.125 19.15 6 18.25 6C17.55 6 16.8333 6.15833 16.1 6.475C15.3667 6.79167 14.7333 7.21667 14.2 7.75L5.75 16.25C5.25 16.75 4.83333 17.3667 4.5 18.1C4.16667 18.8333 4 19.6333 4 20.5C4 21.3 4.15 22.0667 4.45 22.8C4.75 23.5333 5.18333 24.1667 5.75 24.7L8.45 27.4Z" fill="white"/>
</g>
</svg>
