<svg width="535" height="532" viewBox="0 0 535 532" fill="none" xmlns="http://www.w3.org/2000/svg">
<path d="M517.31 205.775C511.527 134.871 508.635 99.4197 495.176 76.4831C456.64 10.8085 344.598 -4.81161 273.836 1.1783C179.101 9.19522 70.7259 63.3512 23.0208 167.913C-20.3079 262.884 -0.328807 370.386 64.9582 440.708C184.64 569.62 431.515 546.604 491.823 462.015C515.89 428.256 517.625 374.335 520.175 295.128C521.4 257 519.009 226.616 517.31 205.775Z" fill="#F4F7FA"/>
<path d="M471.914 43.3787C465.789 38.3397 456.498 35.5952 448.644 35.041C392.973 31.118 384.848 146.838 393.381 172.699C401.915 198.56 396.385 207.052 352.539 220.582C308.694 234.113 329.728 260.164 335.072 275.399C340.416 290.634 350.999 303.503 319.036 318.641C287.073 333.779 298.181 343.159 298.181 343.159C298.181 343.159 357.126 403.117 353.87 383.921C350.614 364.726 356.513 335.74 409.362 333.537C432.126 332.588 466.984 321.79 474.702 297.552C476.5 291.907 477.75 283.287 476.384 277.445C474.487 269.34 469.139 262.956 466.169 255.328C459.248 237.554 476.607 224.538 486.597 212.656C491.813 206.454 497.025 200.094 501.018 193.022C509.311 178.34 506.205 162.594 497.176 149.06C492.845 142.571 486.829 135.685 484.94 127.944C482.911 119.629 484.68 108.268 485.161 99.7135C485.539 93.0043 486.182 86.3216 485.803 79.5953C485.1 67.0878 482.153 51.8037 471.914 43.3787Z" fill="url(#paint0_linear_27_288)"/>
<g opacity="0.8">
<g opacity="0.8">
<path opacity="0.8" d="M293.546 376.812C293.164 376.949 292.731 376.787 292.538 376.421C292.328 376.021 292.483 375.525 292.886 375.316C293.134 375.187 317.949 362.207 345.631 340.829C371.139 321.13 404.37 290.07 417.823 253.962C429.061 223.805 439.308 173.95 445.941 117.183C451.888 66.2777 452.827 28.6301 450.3 21.6418C450.145 21.2167 450.369 20.7479 450.796 20.5942C451.224 20.4404 451.695 20.6625 451.85 21.0876C454.806 29.264 452.93 71.5559 447.578 117.372C440.933 174.265 430.651 224.257 419.369 254.531C405.776 291.01 372.306 322.309 346.62 342.14C318.823 363.602 293.899 376.637 293.651 376.766C293.615 376.783 293.58 376.799 293.546 376.812Z" fill="white"/>
</g>
<g opacity="0.8">
<path opacity="0.8" d="M445.851 127.05C445.425 127.202 444.992 127.084 444.835 126.661C444.629 126.101 423.875 70.5769 397.113 58.041C396.701 57.8493 396.535 57.3862 396.728 56.9762C396.922 56.5663 397.417 56.405 397.827 56.5967C425.202 69.4192 445.524 123.778 446.378 126.092C446.534 126.517 446.282 126.897 445.855 127.048C445.853 127.05 445.851 127.05 445.851 127.05Z" fill="white"/>
</g>
<g opacity="0.8">
<path opacity="0.8" d="M435.729 191.441C435.412 191.555 435.042 191.466 434.815 191.19C434.526 190.841 434.576 190.325 434.927 190.038C435.08 189.913 450.36 177.449 469.213 166.99C494.687 152.858 514.21 148.912 527.238 155.264C527.646 155.463 527.814 155.953 527.614 156.359C527.413 156.765 526.921 156.932 526.513 156.733C496.536 142.119 436.574 190.807 435.973 191.3C435.899 191.363 435.815 191.411 435.729 191.441Z" fill="white"/>
</g>
<g opacity="0.8">
<path opacity="0.8" d="M369.205 323.059C369.121 323.089 369.033 323.104 368.939 323.106C368.485 323.114 368.111 322.753 368.104 322.299C368.1 322.062 367.676 298.239 362.662 273.137C358.064 250.123 348.571 221.295 329.455 214.652C329.025 214.502 328.798 214.035 328.949 213.61C329.098 213.183 329.569 212.957 329.997 213.107C345.937 218.645 357.471 238.742 364.281 272.841C369.321 298.086 369.745 322.036 369.749 322.275C369.756 322.635 369.527 322.943 369.205 323.059Z" fill="white"/>
</g>
<g opacity="0.8">
<path opacity="0.8" d="M403.222 284.57C402.888 284.689 402.502 284.583 402.281 284.285C402.01 283.921 402.088 283.408 402.453 283.141C405.104 281.191 467.637 235.476 492.023 239.841C492.471 239.92 492.767 240.348 492.687 240.792C492.607 241.238 492.179 241.534 491.731 241.452C468.036 237.21 404.075 283.983 403.432 284.456C403.367 284.507 403.294 284.543 403.222 284.57Z" fill="white"/>
</g>
</g>
<path d="M520.775 213.821C516.727 207.019 508.917 201.31 501.716 198.146C450.661 175.722 403.641 281.881 402.87 309.088C402.099 336.295 394.006 342.426 348.145 340.404C302.282 338.383 313.21 369.976 313.056 386.111C312.901 402.245 318.48 417.917 283.251 421.407C248.023 424.897 255.283 437.46 255.283 437.46C255.283 437.46 290.349 513.715 293.817 494.556C297.285 475.396 312.699 450.106 363.179 465.817C384.922 472.583 421.398 474.153 436.91 453.941C440.522 449.235 444.632 441.544 445.332 435.586C446.304 427.323 443.445 419.515 443.244 411.338C442.778 392.283 463.544 385.875 476.986 378.058C484.004 373.977 491.073 369.745 497.238 364.434C510.037 353.409 512.474 337.548 508.583 321.774C506.716 314.211 503.397 305.706 504.254 297.786C505.174 289.28 510.705 279.182 514.068 271.295C516.706 265.109 519.586 259.036 521.517 252.579C525.115 240.567 527.544 225.194 520.775 213.821Z" fill="url(#paint1_linear_27_288)"/>
<g opacity="0.8">
<g opacity="0.8">
<path opacity="0.8" d="M239.47 467.565C239.065 467.565 238.712 467.267 238.655 466.857C238.594 466.409 238.909 465.995 239.359 465.934C239.636 465.896 267.404 462.032 300.728 451.229C331.433 441.276 373.273 423.229 398.22 393.778C419.056 369.181 445.664 325.716 471.22 274.528C494.136 228.628 507.83 193.516 507.83 186.09C507.83 185.638 508.199 185.272 508.653 185.272C509.107 185.272 509.475 185.638 509.475 186.09C509.475 194.779 493.319 233.945 472.693 275.257C447.08 326.557 420.394 370.141 399.478 394.833C374.275 424.586 332.128 442.775 301.209 452.795C267.749 463.638 239.859 467.517 239.581 467.555C239.546 467.563 239.508 467.565 239.47 467.565Z" fill="white"/>
</g>
<g opacity="0.8">
<path opacity="0.8" d="M467.779 283.954C467.327 283.954 466.959 283.612 466.957 283.162C466.953 282.566 466.317 223.292 445.399 202.49C445.077 202.171 445.077 201.657 445.399 201.338C445.72 201.019 446.241 201.021 446.563 201.34C467.961 222.618 468.587 280.687 468.604 283.151C468.608 283.603 468.241 283.954 467.785 283.954C467.781 283.954 467.779 283.954 467.779 283.954Z" fill="white"/>
</g>
<g opacity="0.8">
<path opacity="0.8" d="M436.344 340.973C436.007 340.973 435.69 340.764 435.569 340.43C435.417 340.005 435.638 339.537 436.068 339.383C436.253 339.316 454.873 332.729 476.175 329.231C504.954 324.503 524.668 327.361 534.768 337.722C535.085 338.047 535.076 338.565 534.749 338.88C534.423 339.195 533.902 339.185 533.585 338.861C510.35 315.023 437.358 340.662 436.623 340.924C436.53 340.958 436.436 340.973 436.344 340.973Z" fill="white"/>
</g>
<g opacity="0.8">
<path opacity="0.8" d="M328.958 442.442C328.87 442.442 328.781 442.427 328.691 442.398C328.262 442.252 328.031 441.787 328.179 441.358C328.256 441.132 335.965 418.573 339.787 393.264C343.292 370.06 344.168 339.738 328.439 327.054C328.086 326.77 328.032 326.253 328.319 325.902C328.605 325.551 329.124 325.496 329.477 325.783C342.593 336.358 346.609 359.152 341.412 393.528C337.566 418.979 329.815 441.66 329.737 441.888C329.62 442.227 329.3 442.442 328.958 442.442Z" fill="white"/>
</g>
<g opacity="0.8">
<path opacity="0.8" d="M374.063 417.67C373.708 417.67 373.382 417.44 373.275 417.087C373.143 416.654 373.391 416.197 373.827 416.068C376.983 415.126 451.384 393.148 472.846 405.462C473.239 405.688 473.375 406.189 473.148 406.58C472.92 406.971 472.417 407.106 472.023 406.88C451.168 394.915 375.065 417.408 374.3 417.635C374.222 417.658 374.142 417.67 374.063 417.67Z" fill="white"/>
</g>
</g>
<path d="M349.634 22.5778L349.047 26.7647C347.094 26.8539 345.174 27.1044 343.306 27.522L341.714 23.616C341.281 22.5513 340.053 22.0445 338.975 22.4867L332.224 25.252C331.144 25.6943 330.617 26.9203 331.049 27.987L332.648 31.9423C331.012 32.9786 329.466 34.1515 328.027 35.4497L324.638 32.8343C323.722 32.1283 322.393 32.3029 321.67 33.2253L317.135 38.9951C316.408 39.9194 316.563 41.2441 317.479 41.9521L320.882 44.5826C319.975 46.2756 319.214 48.0635 318.599 49.9291L314.28 49.3654C313.119 49.2136 312.039 50.0316 311.867 51.1932L310.781 58.4699C310.608 59.6352 311.409 60.7057 312.572 60.8575L316.904 61.4231C316.956 63.3875 317.171 65.3196 317.555 67.2004L313.49 68.8858C312.394 69.3394 311.856 70.594 312.287 71.6853L314.996 78.5293C315.429 79.6263 316.671 80.1444 317.771 79.687L321.838 77.9941C322.861 79.6491 324.027 81.2092 325.321 82.6592L322.611 86.159C321.878 87.1061 322.034 88.4612 322.962 89.1862L328.772 93.7185C329.701 94.4435 331.051 94.2613 331.782 93.3105L334.459 89.8334C336.169 90.7388 337.979 91.4922 339.866 92.0939L339.258 96.4326C339.091 97.6207 339.906 98.7082 341.078 98.8601L348.413 99.8166C349.587 99.9704 350.669 99.1296 350.833 97.9415L351.425 93.635C353.419 93.5496 355.379 93.2934 357.286 92.8664L358.895 96.8445C359.342 97.9491 360.592 98.471 361.687 98.0098L368.528 95.1268C369.621 94.6656 370.142 93.3997 369.694 92.2989L368.085 88.3492C369.755 87.2769 371.327 86.0603 372.786 84.7147L376.129 87.2997C377.065 88.0228 378.405 87.8406 379.122 86.8935L383.602 80.9871C384.317 80.0438 384.14 78.6982 383.207 77.9789L379.893 75.4242C380.796 73.6838 381.546 71.8447 382.142 69.9297L386.283 70.4706C387.445 70.6224 388.511 69.7968 388.661 68.6277L389.602 61.332C389.753 60.1686 388.934 59.1019 387.774 58.9501L383.644 58.4111C383.558 56.422 383.306 54.4709 382.882 52.5749L386.713 50.9806C387.789 50.5327 388.299 49.2952 387.852 48.2172L385.054 41.4909C384.607 40.4166 383.374 39.908 382.298 40.354L378.445 41.9521C377.395 40.3141 376.208 38.7692 374.889 37.3401L377.435 34.0357C378.143 33.1152 377.969 31.8 377.049 31.0958L371.295 26.6983C370.375 25.996 369.056 26.1688 368.346 27.0855L365.785 30.3936C364.086 29.5167 362.292 28.7879 360.42 28.2109L360.991 24.0563C361.147 22.9138 360.344 21.8642 359.193 21.7143L352.003 20.7767C350.858 20.6305 349.795 21.4334 349.634 22.5778ZM324.287 56.4922C326.365 42.1134 339.635 32.0334 353.94 33.8991C368.245 35.7648 378.292 48.8872 376.37 63.285C374.437 77.772 361.138 88.0494 346.676 86.1647C332.215 84.2781 322.197 70.9584 324.287 56.4922Z" fill="#D8DEE8"/>
<path d="M239.391 20.3076L238.482 26.7815C235.465 26.9181 232.495 27.3053 229.605 27.9506L227.145 21.9113C226.473 20.2639 224.578 19.482 222.912 20.1652L212.474 24.4413C210.804 25.1265 209.989 27.0187 210.657 28.6718L213.131 34.787C210.602 36.3888 208.21 38.2014 205.987 40.2113L200.738 36.1668C199.324 35.0755 197.268 35.3469 196.15 36.7703L189.138 45.6907C188.014 47.1198 188.252 49.1677 189.668 50.2628L194.93 54.332C193.529 56.9493 192.35 59.7146 191.399 62.5976L184.721 61.7264C182.929 61.493 181.259 62.757 180.99 64.5525L179.312 75.8054C179.043 77.6084 180.284 79.2615 182.082 79.495L188.779 80.368C188.859 83.4048 189.191 86.394 189.787 89.3017L183.502 91.9075C181.807 92.6098 180.975 94.5476 181.643 96.2368L185.83 106.818C186.5 108.513 188.422 109.315 190.121 108.608L196.409 105.99C197.99 108.549 199.793 110.961 201.795 113.202L197.606 118.614C196.472 120.079 196.715 122.174 198.15 123.294L207.134 130.301C208.571 131.423 210.657 131.14 211.789 129.671L215.929 124.296C218.572 125.697 221.372 126.862 224.29 127.792L223.347 134.501C223.09 136.338 224.349 138.02 226.164 138.255L237.505 139.734C239.318 139.971 240.994 138.671 241.246 136.834L242.162 130.176C245.246 130.045 248.277 129.648 251.224 128.988L253.711 135.139C254.402 136.847 256.335 137.654 258.028 136.94L268.605 132.484C270.295 131.772 271.102 129.813 270.407 128.109L267.918 122.001C270.501 120.344 272.932 118.462 275.188 116.382L280.357 120.379C281.801 121.497 283.872 121.214 284.983 119.752L291.909 110.621C293.014 109.164 292.741 107.082 291.299 105.969L286.176 102.022C287.573 99.3285 288.731 96.4854 289.651 93.5265L296.057 94.3616C297.855 94.5969 299.502 93.3196 299.734 91.5128L301.189 80.2314C301.422 78.4302 300.154 76.7828 298.362 76.5494L291.976 75.7162C291.844 72.6415 291.455 69.6238 290.799 66.6933L296.723 64.2279C298.389 63.5352 299.177 61.622 298.482 59.9556L294.156 49.5549C293.465 47.8942 291.558 47.1085 289.896 47.7974L283.939 50.2666C282.317 47.7329 280.479 45.3453 278.442 43.1379L282.378 38.0287C283.473 36.6071 283.206 34.5725 281.78 33.4831L272.883 26.6847C271.461 25.599 269.42 25.8666 268.323 27.2844L264.361 32.3994C261.733 31.0442 258.959 29.9169 256.066 29.0229L256.95 22.5984C257.192 20.8314 255.948 19.2105 254.171 18.979L243.053 17.529C241.28 17.2974 239.639 18.5406 239.391 20.3076ZM200.198 72.7459C203.41 50.5134 223.929 34.9274 246.046 37.8123C268.163 40.6972 283.697 60.9862 280.727 83.2491C277.738 105.647 257.177 121.54 234.818 118.623C212.457 115.708 196.965 95.1113 200.198 72.7459Z" fill="#D8DEE8"/>
<path d="M228.754 82.9966L180.131 484.894C179.402 490.92 183.578 496.322 189.429 496.899L391.953 519.01C404.359 519.776 411.152 513.473 411.919 507.066L462.968 79.7815C463.729 73.4101 457.643 67.6384 445.184 67.6384L240.818 71.9183C234.9 72.0189 229.479 77.0029 228.754 82.9966Z" fill="url(#paint2_linear_27_288)"/>
<path d="M219.639 82.306L170.748 486.214C170.015 492.27 174.207 497.7 180.077 498.281L390.037 519.069C396.62 519.72 402.653 514.984 403.422 508.545L454.757 79.053C455.523 72.6474 450.688 67.5002 444.033 67.6121L231.745 71.1746C225.809 71.2714 220.368 76.282 219.639 82.306Z" fill="url(#paint3_linear_27_288)"/>
<path d="M223.623 104.584L178.308 479.086C177.623 484.744 181.549 489.808 187.044 490.339L384.504 509.427C390.623 510.019 396.23 505.599 396.948 499.603L444.39 102.853C445.103 96.8894 440.614 92.0629 434.432 92.1293L234.945 94.2418C229.393 94.2987 224.305 98.9543 223.623 104.584Z" fill="#D8DEE8"/>
<path d="M329.512 82.0267C329.252 84.1771 330.804 85.8985 332.98 85.8701C335.158 85.8435 337.135 84.0746 337.394 81.9204C337.654 79.7663 336.097 78.0448 333.919 78.0771C331.741 78.1094 329.77 79.8783 329.512 82.0267Z" fill="url(#paint4_linear_27_288)"/>
<path d="M257.762 355.975C298.186 281.653 358.575 259.405 376.756 182.808C386.584 141.404 379.888 101.775 368.611 68.8761L444.036 67.6102C450.691 67.4982 455.526 72.6473 454.76 79.051L403.425 508.543C402.656 514.984 396.623 519.72 390.04 519.067L224.992 502.726C223.768 436.13 239.741 389.103 257.762 355.975Z" fill="white"/>
<path d="M20.3016 124.928C20.3016 85.436 54.9443 53.4271 96.5171 53.4309C136.861 53.4347 168.7 83.7601 168.7 121.163C168.7 158.566 136.861 190.506 96.5171 192.558C54.9424 194.672 20.3016 164.421 20.3016 124.928Z" fill="url(#paint5_linear_27_288)"/>
<path d="M24.783 121.779C24.783 82.287 58.4237 50.2782 98.7922 50.282C137.968 50.2858 168.887 80.6112 168.887 118.014C168.887 155.417 137.968 187.357 98.7922 189.409C58.4218 191.523 24.783 161.27 24.783 121.779Z" fill="url(#paint6_linear_27_288)"/>
<g opacity="0.5">
<path opacity="0.5" d="M36.2996 121.477C36.2996 88.2976 64.5619 61.4037 98.4794 61.4094C131.393 61.4132 157.371 86.8912 157.371 118.316C157.371 149.74 131.395 176.575 98.4794 178.298C64.5619 180.075 36.2996 154.657 36.2996 121.477Z" fill="white"/>
</g>
<path opacity="0.5" d="M96.1452 66.5073C129.059 66.5111 155.037 91.9891 155.037 123.413C155.037 130.886 153.554 138.092 150.872 144.769C155.025 136.729 157.373 127.731 157.373 118.316C157.373 86.8912 131.397 61.4132 98.4813 61.4094C72.3222 61.4075 49.5414 77.411 40.4813 99.951C50.74 80.1346 72.0054 66.5054 96.1452 66.5073Z" fill="white"/>
<path d="M70.3574 113.356V142.315C70.3574 150.687 77.4401 157.292 86.1509 157.066L107.75 156.506C116.356 156.282 123.311 149.387 123.311 141.102V112.449L70.3574 113.356ZM90.2486 143.295L94.2624 131.199C92.5428 130.316 91.3785 128.578 91.3785 126.553C91.3785 123.581 93.8864 121.123 96.9745 121.066C100.059 121.007 102.557 123.364 102.557 126.331C102.557 128.352 101.397 130.134 99.6828 131.087L103.681 142.983L90.2486 143.295Z" fill="white"/>
<path d="M117.171 109.938C114.879 109.976 113.02 108.213 113.02 105.998C113.02 97.4858 105.834 90.6532 96.9725 90.7671C88.0804 90.8809 80.8221 97.9432 80.8221 106.509C80.8221 108.737 78.9383 110.574 76.6117 110.614C74.2832 110.652 72.3937 108.875 72.3937 106.643C72.3937 93.6064 83.4502 82.8754 96.9744 82.7255C110.426 82.5755 121.315 92.9573 121.315 105.869C121.315 108.078 119.461 109.9 117.171 109.938Z" fill="white"/>
<path d="M167.199 275.11C167.199 275.11 165.729 269.633 166.771 268.232C167.811 266.832 174.176 261.233 173.566 263.059C172.953 264.884 172.035 266.101 172.035 266.101C172.035 266.101 175.463 267.684 173.258 270.056C171.056 272.431 170.319 272.977 170.197 275.109C170.077 277.24 168.668 277.971 167.199 275.11Z" fill="url(#paint7_linear_27_288)"/>
<path d="M106.057 511.551C106.057 511.551 105.278 516.288 105.378 517.973C105.477 519.659 124.292 520.52 124.481 519.258C124.669 517.996 121.371 515.986 119.049 515.278C116.726 514.568 109.928 512.678 109.928 512.678L106.057 511.551Z" fill="url(#paint8_linear_27_288)"/>
<path d="M110.623 506.829L110.024 512.72C110.024 512.72 107.839 514.157 105.913 513.048L104.949 506.637L110.623 506.829Z" fill="url(#paint9_linear_27_288)"/>
<path d="M72.4872 519.23C72.4872 519.23 71.7085 523.967 71.8078 525.653C71.907 527.338 90.7218 528.2 90.9108 526.938C91.1016 525.675 87.8017 523.665 85.4789 522.958C83.1562 522.25 76.3578 520.357 76.3578 520.357L72.4872 519.23Z" fill="url(#paint10_linear_27_288)"/>
<path d="M77.0552 514.508L76.4559 520.399C76.4559 520.399 74.2705 521.836 72.3448 520.727L71.3809 514.316L77.0552 514.508Z" fill="url(#paint11_linear_27_288)"/>
<path d="M107.21 353.046C109.384 357.43 111.56 361.814 113.734 366.198C115.482 391.219 116.352 418.428 115.793 447.525C115.377 469.173 114.215 489.681 112.543 508.93C109.594 508.795 106.645 508.66 103.696 508.525C99.4327 500.11 94.3997 487.361 93.9359 471.624C93.4531 455.208 98.4574 453.028 98.1406 437.311C97.7283 416.938 89.1377 411.502 84.561 386.998C82.8108 377.626 81.6332 365.386 83.0322 350.537C91.0922 351.374 99.1502 352.211 107.21 353.046Z" fill="url(#paint12_linear_27_288)"/>
<path opacity="0.3" d="M83.0338 350.537C87.3854 350.988 91.737 351.44 96.0905 351.892C103.925 365.449 106.112 379.558 104.736 385.8C102.792 394.632 97.646 397.46 97.9303 406.325C98.2109 415.097 103.408 417.373 106.704 427.711C108.987 434.87 108.384 441.452 107.086 454.324C104.471 480.252 98.1746 488.181 103.448 496.682C104.946 499.098 107.647 501.974 112.938 504.17C112.808 505.76 112.68 507.354 112.544 508.928C109.596 508.795 106.647 508.658 103.698 508.525C99.4343 500.11 94.4014 487.361 93.9376 471.624C93.4547 455.208 98.459 453.028 98.1422 437.311C97.7299 416.938 89.1394 411.504 84.5626 387C82.8124 377.628 81.6329 365.388 83.0338 350.537Z" fill="url(#paint13_linear_27_288)"/>
<path d="M95.5081 360.939C91.4256 383.077 87.8203 406.769 85.007 431.896C81.6097 462.235 79.7966 490.837 79.0847 517.391C75.8477 517.482 72.6127 517.573 69.3757 517.664C56.6225 492.575 55.8438 475.566 57.6818 464.491C58.3899 460.225 60.3156 451.857 60.7546 439.349C61.06 430.632 60.5008 423.997 59.8022 416.021C58.2716 398.536 56.4126 394.719 56.1454 381.344C55.8935 368.791 55.8419 362.441 59.4453 358.734C68.9386 348.965 93.6357 360.074 95.5081 360.939Z" fill="url(#paint14_linear_27_288)"/>
<path d="M165.506 274.266C167.659 274.116 169.81 273.968 171.963 273.818C177.04 294.223 173.398 314.015 161.939 321.293C144.035 332.666 110.758 311.24 103.548 287.908C100.383 277.667 101.103 262.89 107.43 260.018C109.186 259.221 111.911 259.098 117.815 262.392C135.444 272.235 135.908 290.839 144.871 292.414C148.852 293.116 155.288 290.59 165.506 274.266Z" fill="url(#paint15_linear_27_288)"/>
<path d="M116.211 370.687C119.312 365.57 115.417 360.636 114.531 350.943C113.527 339.956 117.784 338.126 121.992 319.919C124.792 307.81 127.477 296.185 124.271 282.577C122.734 276.055 120.127 264.994 110.92 259.652C106.17 256.894 99.6826 257.171 86.9046 257.835C71.1016 258.657 63.2019 259.067 57.3082 262.153C56.4455 262.605 38.5201 272.301 37.2852 288.107C36.0294 304.194 53.6456 306.356 55.9951 327.809C57.0505 337.439 55.1706 352.25 53.951 361.856C52.781 371.08 51.9737 373.441 53.806 376.235C58.2186 382.967 71.7257 381.048 98.7398 377.212C109.336 375.705 113.896 374.506 116.211 370.687Z" fill="url(#paint16_linear_27_288)"/>
<path d="M75.1068 324.356C73.9635 328.538 69.8562 331.66 66.9972 341.831C66.3807 344.027 61.9814 359.664 67.6862 363.513C70.9804 365.736 73.9387 361.524 81.9357 360.974C95.792 360.021 102.394 371.602 111.446 368.438C113.017 367.888 115.09 366.719 117.161 364.031C117.573 366.453 117.502 368.558 116.212 370.689C113.899 374.508 109.337 375.707 98.7408 377.212C71.7267 381.048 58.2196 382.967 53.8069 376.235C51.9766 373.443 52.782 371.08 53.952 361.856C55.1716 352.249 57.0515 337.437 55.9961 327.809C53.6466 306.356 36.0285 304.195 37.2862 288.108C37.6221 283.807 39.212 279.979 41.3401 276.644C63.6877 285.637 78.6968 311.217 75.1068 324.356Z" fill="url(#paint17_linear_27_288)"/>
<path d="M46.882 355.999L51.3538 358.838C52.1573 357.916 54.0163 356.056 56.9173 355.422C60.1867 354.706 63.9409 355.733 64.0268 356.769C64.0974 357.601 61.8109 358.44 61.4578 358.569C58.6045 359.616 56.4879 358.745 55.3351 359.886C54.9266 360.288 54.419 361.04 53.249 361.734C52.9417 361.917 52.6211 362.078 52.4512 362.144C50.5464 362.881 47.2809 359.584 47.0003 359.296L46.882 355.999Z" fill="url(#paint18_linear_27_288)"/>
<path d="M60.091 297.682C63.326 289.979 65.5667 278.183 60.4574 260.667C26.7938 273.857 9.62605 305.128 16.329 329.915C21.8544 350.35 41.9594 360.303 46.4446 362.398C47.4886 360.036 48.5326 357.675 49.5746 355.313C44.3776 349.559 38.5201 341.049 39.3485 331.337C40.4974 317.873 53.5426 313.278 60.091 297.682Z" fill="url(#paint19_linear_27_288)"/>
<path d="M86.0758 241.987C86.0758 241.987 85.8105 247.842 83.9821 252.229C82.3293 256.192 73.6414 258.684 71.8798 259.568C70.1182 260.452 75.1797 263.039 80.2623 263.546C85.3448 264.055 99.8577 262.906 102.474 260.991C105.091 259.076 100.371 259.221 96.7448 257.896C93.1166 256.571 91.0191 249.516 91.6604 246.315C92.3016 243.111 86.0758 241.987 86.0758 241.987Z" fill="url(#paint20_linear_27_288)"/>
<path d="M94.1148 239.864C96.7524 237.286 97.1208 236.986 97.4071 236.096C98.5599 232.522 95.7714 227.626 92.1146 226.42C91.9237 226.358 89.4712 225.578 88.536 226.635C87.7401 227.533 88.9101 228.774 88.3547 230.507C87.8336 232.128 86.4213 232.249 83.8008 234.375C81.6422 236.125 80.3023 237.214 79.9931 238.746C79.3557 241.902 83.1977 246.476 86.5988 246.353C87.8222 246.307 88.1562 245.687 94.1148 239.864Z" fill="url(#paint21_linear_27_288)"/>
<path d="M86.9333 246.841C86.9333 246.841 89.737 249.997 94.0065 248.953C97.8294 248.019 96.8541 239.292 94.0561 237.899C93.1228 237.434 91.4261 237.472 90.1511 238.083C89.3973 238.444 89.1873 238.82 87.9448 239.385C86.7997 239.907 86.4351 239.835 86.1278 240.203C85.7423 240.663 85.5763 241.653 86.7844 244.041C85.9141 243.428 84.977 243.299 84.4025 243.705C84.3109 243.77 84.078 243.997 83.9769 244.295C83.6123 245.375 84.7422 246.474 86.9333 246.841Z" fill="url(#paint22_linear_27_288)"/>
<path d="M406.671 128.684L407.658 133.981L387.344 134.028L211.067 134.444C206.533 134.455 202.362 138.183 201.74 142.77L159.66 422.438C159.034 427.067 166.279 434.133 170.787 434.479L248.991 440.455V440.36L365.972 449.285C365.974 449.285 365.976 449.285 365.978 449.285L366.26 449.402C371.255 449.786 375.838 446.181 376.487 441.292C376.487 441.29 376.487 441.313 376.488 441.311L415.897 142.717C416.538 137.873 411.694 128.67 406.671 128.684Z" fill="url(#paint23_linear_27_288)"/>
<path d="M372.501 435.474C371.856 440.365 367.275 444.02 362.281 443.639L166.605 428.698C162.099 428.355 158.963 424.324 159.589 419.695L197.843 137.053C198.463 132.465 202.633 128.738 207.164 128.724L403.945 128.185C408.966 128.172 412.528 132.088 411.89 136.931L372.501 435.474Z" fill="url(#paint24_linear_27_288)"/>
<path d="M375.101 280.037C374.78 282.458 372.505 284.265 370.02 284.174L197.803 277.924C195.53 277.843 193.93 275.981 194.243 273.667L197.629 248.711C197.942 246.399 200.017 244.835 202.292 244.898L374.66 249.658C377.149 249.726 378.91 251.474 378.592 253.894L375.101 280.037Z" fill="white"/>
<path d="M368.432 330.744C368.112 333.172 365.835 335.243 363.35 335.119L191.262 326.666C188.991 326.554 187.411 324.392 187.724 322.076L191.136 296.638C191.449 294.325 193.543 292.341 195.816 292.432L368.008 299.339C370.493 299.44 372.251 301.675 371.931 304.099L368.432 330.744Z" fill="white"/>
<path opacity="0.1" d="M378.605 253.794C378.197 253.663 377.758 253.591 377.29 253.578L204.919 248.819C202.645 248.755 200.569 250.323 200.26 252.629L196.868 277.585C196.86 277.649 196.855 277.71 196.849 277.774C195.101 277.285 193.977 275.637 194.24 273.664L197.632 248.707C197.941 246.401 200.017 244.832 202.29 244.898L374.662 249.656C377.107 249.729 378.861 251.422 378.605 253.794Z" fill="url(#paint25_linear_27_288)"/>
<path opacity="0.1" d="M371.968 303.537C371.553 303.374 371.107 303.275 370.633 303.256L198.445 296.348C196.172 296.257 194.074 298.244 193.765 300.557L190.347 325.997C190.328 326.161 190.314 326.318 190.314 326.481C188.566 325.92 187.455 324.05 187.719 322.076L191.137 296.636C191.446 294.323 193.542 292.335 195.817 292.427L368.005 299.335C370.305 299.434 371.973 301.341 371.968 303.537Z" fill="url(#paint26_linear_27_288)"/>
<path d="M322.665 371.845C323.172 368.016 320.451 364.49 316.582 364.268L227.499 359.182C223.81 358.971 220.403 362.061 219.901 365.788L216.225 393.343C215.723 397.076 218.282 400.648 221.97 400.898L311.007 406.957C314.874 407.22 318.435 403.973 318.945 400.139L322.665 371.845Z" fill="url(#paint27_linear_27_288)"/>
<path d="M329.393 186.201C328.219 195.009 323.669 202.96 317.199 208.807C310.226 215.114 301.042 218.952 291.492 218.767C281.989 218.585 273.99 214.457 268.854 208.01C264.117 202.067 261.796 194.149 262.958 185.489C265.377 167.472 282.023 152.907 300.29 152.951C318.731 152.99 331.832 167.876 329.393 186.201Z" fill="url(#paint28_linear_27_288)"/>
<path d="M311.629 176.189C310.576 184.081 303.25 190.405 295.297 190.31C287.377 190.215 281.83 183.787 282.878 175.952C283.928 168.119 291.179 161.801 299.103 161.837C307.062 161.873 312.683 168.297 311.629 176.189Z" fill="white"/>
<path d="M317.2 208.807C310.228 215.114 301.044 218.952 291.493 218.768C281.99 218.586 273.991 214.458 268.855 208.01C274.734 199.866 284.43 194.449 294.726 194.582C305.078 194.715 313.423 200.42 317.2 208.807Z" fill="white"/>
<path opacity="0.4" d="M411.889 136.93L372.501 435.473C371.856 440.362 366.984 443.996 361.991 443.615L244.466 434.642C238.883 428.957 234.285 422.136 231.004 413.95C229.394 409.936 228.214 405.605 227.43 401.05C225.248 388.444 226.094 374.114 229.275 360.048C231.722 349.221 235.558 338.531 240.469 328.886C244.397 321.175 249.016 314.124 254.175 308.199C257.889 303.934 261.906 299.791 266.143 295.727C271.253 290.823 276.683 286.036 282.284 281.293C295.337 270.234 309.314 259.421 322.254 248.003C352.112 221.664 376.336 192.232 370.507 150.238C370.32 148.915 368.501 138.786 366.176 128.287L403.653 128.184C408.673 128.171 412.528 132.088 411.889 136.93Z" fill="white"/>
<defs>
<linearGradient id="paint0_linear_27_288" x1="357.861" y1="383.312" x2="495.897" y2="8.4159" gradientUnits="userSpaceOnUse">
<stop offset="0.00359712" stop-color="#E38DDD"/>
<stop offset="1" stop-color="#9571F6"/>
</linearGradient>
<linearGradient id="paint1_linear_27_288" x1="254.665" y1="346.351" x2="525.059" y2="346.351" gradientUnits="userSpaceOnUse">
<stop stop-color="#FF9085"/>
<stop offset="1" stop-color="#FB6FBB"/>
</linearGradient>
<linearGradient id="paint2_linear_27_288" x1="324.055" y1="282.962" x2="403.857" y2="291.717" gradientUnits="userSpaceOnUse">
<stop stop-color="#444B8C"/>
<stop offset="0.9964" stop-color="#26264F"/>
</linearGradient>
<linearGradient id="paint3_linear_27_288" x1="253.732" y1="82.8987" x2="449.065" y2="751.623" gradientUnits="userSpaceOnUse">
<stop stop-color="#444B8C"/>
<stop offset="0.9964" stop-color="#26264F"/>
</linearGradient>
<linearGradient id="paint4_linear_27_288" x1="327.685" y1="66.4417" x2="557.358" y2="691.96" gradientUnits="userSpaceOnUse">
<stop stop-color="#FFC444"/>
<stop offset="0.9964" stop-color="#F36F56"/>
</linearGradient>
<linearGradient id="paint5_linear_27_288" x1="-1698.76" y1="1804.55" x2="-1540.94" y2="1654.89" gradientUnits="userSpaceOnUse">
<stop stop-color="#311944"/>
<stop offset="1" stop-color="#893976"/>
</linearGradient>
<linearGradient id="paint6_linear_27_288" x1="48.6161" y1="163.361" x2="175.107" y2="47.9309" gradientUnits="userSpaceOnUse">
<stop stop-color="#FF9085"/>
<stop offset="1" stop-color="#FB6FBB"/>
</linearGradient>
<linearGradient id="paint7_linear_27_288" x1="177.424" y1="263.12" x2="152.375" y2="288.76" gradientUnits="userSpaceOnUse">
<stop stop-color="#FFC444"/>
<stop offset="0.9964" stop-color="#F36F56"/>
</linearGradient>
<linearGradient id="paint8_linear_27_288" x1="114.977" y1="505.342" x2="115.187" y2="448.771" gradientUnits="userSpaceOnUse">
<stop stop-color="#AA80F9"/>
<stop offset="0.9964" stop-color="#6165D7"/>
</linearGradient>
<linearGradient id="paint9_linear_27_288" x1="109.343" y1="523.521" x2="106.664" y2="494.286" gradientUnits="userSpaceOnUse">
<stop stop-color="#FFC444"/>
<stop offset="0.9964" stop-color="#F36F56"/>
</linearGradient>
<linearGradient id="paint10_linear_27_288" x1="81.4382" y1="505.218" x2="81.6481" y2="448.646" gradientUnits="userSpaceOnUse">
<stop stop-color="#AA80F9"/>
<stop offset="0.9964" stop-color="#6165D7"/>
</linearGradient>
<linearGradient id="paint11_linear_27_288" x1="75.3509" y1="526.635" x2="72.6719" y2="497.4" gradientUnits="userSpaceOnUse">
<stop stop-color="#FFC444"/>
<stop offset="0.9964" stop-color="#F36F56"/>
</linearGradient>
<linearGradient id="paint12_linear_27_288" x1="108.314" y1="376.227" x2="87.6852" y2="482.282" gradientUnits="userSpaceOnUse">
<stop stop-color="#311944"/>
<stop offset="1" stop-color="#893976"/>
</linearGradient>
<linearGradient id="paint13_linear_27_288" x1="118.72" y1="428.065" x2="87.3942" y2="430.59" gradientUnits="userSpaceOnUse">
<stop stop-color="#311944"/>
<stop offset="1" stop-color="#893976"/>
</linearGradient>
<linearGradient id="paint14_linear_27_288" x1="101.392" y1="433.925" x2="53.8368" y2="437.758" gradientUnits="userSpaceOnUse">
<stop stop-color="#311944"/>
<stop offset="1" stop-color="#893976"/>
</linearGradient>
<linearGradient id="paint15_linear_27_288" x1="138.958" y1="277.83" x2="104.154" y2="502.601" gradientUnits="userSpaceOnUse">
<stop stop-color="#AA80F9"/>
<stop offset="0.9964" stop-color="#6165D7"/>
</linearGradient>
<linearGradient id="paint16_linear_27_288" x1="64.1229" y1="524.484" x2="47.293" y2="751.286" gradientUnits="userSpaceOnUse">
<stop stop-color="#AA80F9"/>
<stop offset="0.9964" stop-color="#6165D7"/>
</linearGradient>
<linearGradient id="paint17_linear_27_288" x1="6.26349" y1="447.157" x2="99.4079" y2="286.714" gradientUnits="userSpaceOnUse">
<stop stop-color="#AA80F9"/>
<stop offset="0.9964" stop-color="#6165D7"/>
</linearGradient>
<linearGradient id="paint18_linear_27_288" x1="39.5599" y1="336.537" x2="59.2266" y2="363.253" gradientUnits="userSpaceOnUse">
<stop stop-color="#FFC444"/>
<stop offset="0.9964" stop-color="#F36F56"/>
</linearGradient>
<linearGradient id="paint19_linear_27_288" x1="22.544" y1="521.399" x2="5.71405" y2="748.201" gradientUnits="userSpaceOnUse">
<stop stop-color="#AA80F9"/>
<stop offset="0.9964" stop-color="#6165D7"/>
</linearGradient>
<linearGradient id="paint20_linear_27_288" x1="95.8143" y1="270.226" x2="76.8734" y2="246.527" gradientUnits="userSpaceOnUse">
<stop stop-color="#FFC444"/>
<stop offset="0.9964" stop-color="#F36F56"/>
</linearGradient>
<linearGradient id="paint21_linear_27_288" x1="81.3135" y1="261.559" x2="91.3182" y2="228.463" gradientUnits="userSpaceOnUse">
<stop stop-color="#444B8C"/>
<stop offset="0.9964" stop-color="#3E4177"/>
</linearGradient>
<linearGradient id="paint22_linear_27_288" x1="107.091" y1="250.021" x2="78.7133" y2="237.319" gradientUnits="userSpaceOnUse">
<stop stop-color="#FFC444"/>
<stop offset="0.9964" stop-color="#F36F56"/>
</linearGradient>
<linearGradient id="paint23_linear_27_288" x1="159.623" y1="289.058" x2="415.955" y2="289.058" gradientUnits="userSpaceOnUse">
<stop stop-color="#311944"/>
<stop offset="1" stop-color="#893976"/>
</linearGradient>
<linearGradient id="paint24_linear_27_288" x1="315.464" y1="790.408" x2="285.238" y2="263.915" gradientUnits="userSpaceOnUse">
<stop offset="0.003597" stop-color="#F36F56"/>
<stop offset="1" stop-color="#FFC444"/>
</linearGradient>
<linearGradient id="paint25_linear_27_288" x1="194.201" y1="261.337" x2="378.629" y2="261.337" gradientUnits="userSpaceOnUse">
<stop offset="0.003597" stop-color="#F36F56"/>
<stop offset="1" stop-color="#FFC444"/>
</linearGradient>
<linearGradient id="paint26_linear_27_288" x1="187.682" y1="309.453" x2="371.967" y2="309.453" gradientUnits="userSpaceOnUse">
<stop offset="0.003597" stop-color="#F36F56"/>
<stop offset="1" stop-color="#FFC444"/>
</linearGradient>
<linearGradient id="paint27_linear_27_288" x1="278.262" y1="327.219" x2="237.513" y2="587.077" gradientUnits="userSpaceOnUse">
<stop offset="0.003597" stop-color="#F36F56"/>
<stop offset="1" stop-color="#FFC444"/>
</linearGradient>
<linearGradient id="paint28_linear_27_288" x1="291.814" y1="56.7327" x2="300.514" y2="317.264" gradientUnits="userSpaceOnUse">
<stop offset="0.003597" stop-color="#F36F56"/>
<stop offset="1" stop-color="#FFC444"/>
</linearGradient>
</defs>
</svg>
