<svg width="48" height="48" viewBox="0 0 48 48" fill="none" xmlns="http://www.w3.org/2000/svg">
<mask id="mask0_6_3656" style="mask-type:alpha" maskUnits="userSpaceOnUse" x="0" y="0" width="48" height="48">
<rect width="48" height="48" fill="#D9D9D9"/>
</mask>
<g mask="url(#mask0_6_3656)">
<path d="M5 40C4.16667 40 3.45833 39.7083 2.875 39.125C2.29167 38.5417 2 37.8333 2 37V14H5V37H40V40H5ZM11 34C10.1667 34 9.45833 33.7083 8.875 33.125C8.29167 32.5417 8 31.8333 8 31V11C8 10.1667 8.29167 9.45833 8.875 8.875C9.45833 8.29167 10.1667 8 11 8H43C43.8333 8 44.5417 8.29167 45.125 8.875C45.7083 9.45833 46 10.1667 46 11V31C46 31.8333 45.7083 32.5417 45.125 33.125C44.5417 33.7083 43.8333 34 43 34H11ZM16 31C16 29.6 15.5167 28.4167 14.55 27.45C13.5833 26.4833 12.4 26 11 26V31H16ZM38 31H43V26C41.6 26 40.4167 26.4833 39.45 27.45C38.4833 28.4167 38 29.6 38 31ZM27 27C28.6667 27 30.0833 26.4167 31.25 25.25C32.4167 24.0833 33 22.6667 33 21C33 19.3333 32.4167 17.9167 31.25 16.75C30.0833 15.5833 28.6667 15 27 15C25.3333 15 23.9167 15.5833 22.75 16.75C21.5833 17.9167 21 19.3333 21 21C21 22.6667 21.5833 24.0833 22.75 25.25C23.9167 26.4167 25.3333 27 27 27ZM11 16C12.4 16 13.5833 15.5167 14.55 14.55C15.5167 13.5833 16 12.4 16 11H11V16ZM43 16V11H38C38 12.4 38.4833 13.5833 39.45 14.55C40.4167 15.5167 41.6 16 43 16Z" fill="#FEFEFF"/>
</g>
</svg>
