<svg width="102" height="48" viewBox="0 0 102 48" fill="none" xmlns="http://www.w3.org/2000/svg">
<path d="M69.4711 0H77.1822H86.5289C95.0734 0 102 6.98436 102 15.6V32.4C102 41.0156 95.0734 48 86.5289 48H69.4711C60.9266 48 54 41.0156 54 32.4V15.6C54 6.98436 60.9266 0 69.4711 0Z" fill="#4C40F7"/>
<path d="M73.5727 21.24C73.2527 20.6533 72.8127 20.2067 72.2527 19.9C71.6927 19.5933 71.0393 19.44 70.2927 19.44C69.466 19.44 68.7327 19.6267 68.0927 20C67.4527 20.3733 66.9527 20.9067 66.5927 21.6C66.2327 22.2933 66.0527 23.0933 66.0527 24C66.0527 24.9333 66.2327 25.7467 66.5927 26.44C66.966 27.1333 67.4793 27.6667 68.1327 28.04C68.786 28.4133 69.546 28.6 70.4127 28.6C71.4793 28.6 72.3527 28.32 73.0327 27.76C73.7127 27.1867 74.1593 26.3933 74.3727 25.38H69.5727V23.24H77.1327V25.68C76.946 26.6533 76.546 27.5533 75.9327 28.38C75.3193 29.2067 74.526 29.8733 73.5527 30.38C72.5927 30.8733 71.5127 31.12 70.3127 31.12C68.966 31.12 67.746 30.82 66.6527 30.22C65.5727 29.6067 64.7193 28.76 64.0927 27.68C63.4793 26.6 63.1727 25.3733 63.1727 24C63.1727 22.6267 63.4793 21.4 64.0927 20.32C64.7193 19.2267 65.5727 18.38 66.6527 17.78C67.746 17.1667 68.9593 16.86 70.2927 16.86C71.866 16.86 73.2327 17.2467 74.3927 18.02C75.5527 18.78 76.3527 19.8533 76.7927 21.24H73.5727ZM85.6842 31.14C84.3776 31.14 83.1776 30.8333 82.0842 30.22C80.9909 29.6067 80.1242 28.76 79.4842 27.68C78.8442 26.5867 78.5242 25.3533 78.5242 23.98C78.5242 22.62 78.8442 21.4 79.4842 20.32C80.1242 19.2267 80.9909 18.3733 82.0842 17.76C83.1776 17.1467 84.3776 16.84 85.6842 16.84C87.0042 16.84 88.2042 17.1467 89.2842 17.76C90.3776 18.3733 91.2376 19.2267 91.8642 20.32C92.5042 21.4 92.8242 22.62 92.8242 23.98C92.8242 25.3533 92.5042 26.5867 91.8642 27.68C91.2376 28.76 90.3776 29.6067 89.2842 30.22C88.1909 30.8333 86.9909 31.14 85.6842 31.14ZM85.6842 28.64C86.5242 28.64 87.2642 28.4533 87.9042 28.08C88.5442 27.6933 89.0442 27.1467 89.4042 26.44C89.7642 25.7333 89.9442 24.9133 89.9442 23.98C89.9442 23.0467 89.7642 22.2333 89.4042 21.54C89.0442 20.8333 88.5442 20.2933 87.9042 19.92C87.2642 19.5467 86.5242 19.36 85.6842 19.36C84.8442 19.36 84.0976 19.5467 83.4442 19.92C82.8042 20.2933 82.3042 20.8333 81.9442 21.54C81.5842 22.2333 81.4042 23.0467 81.4042 23.98C81.4042 24.9133 81.5842 25.7333 81.9442 26.44C82.3042 27.1467 82.8042 27.6933 83.4442 28.08C84.0976 28.4533 84.8442 28.64 85.6842 28.64Z" fill="white"/>
<path d="M11.937 21.36C11.937 22.1067 11.757 22.8067 11.397 23.46C11.0503 24.1133 10.497 24.64 9.73695 25.04C8.99029 25.44 8.04362 25.64 6.89695 25.64H4.55695V31H1.75695V17.04H6.89695C7.97695 17.04 8.89695 17.2267 9.65695 17.6C10.417 17.9733 10.9836 18.4867 11.357 19.14C11.7436 19.7933 11.937 20.5333 11.937 21.36ZM6.77695 23.38C7.55029 23.38 8.12362 23.2067 8.49695 22.86C8.87029 22.5 9.05695 22 9.05695 21.36C9.05695 20 8.29695 19.32 6.77695 19.32H4.55695V23.38H6.77695ZM16.7249 21.64C17.0849 21.0533 17.5516 20.5933 18.1249 20.26C18.7116 19.9267 19.3783 19.76 20.1249 19.76V22.7H19.3849C18.5049 22.7 17.8383 22.9067 17.3849 23.32C16.9449 23.7333 16.7249 24.4533 16.7249 25.48V31H13.9249V19.92H16.7249V21.64ZM26.9309 31.18C25.8642 31.18 24.9042 30.9467 24.0509 30.48C23.1975 30 22.5242 29.3267 22.0309 28.46C21.5509 27.5933 21.3109 26.5933 21.3109 25.46C21.3109 24.3267 21.5575 23.3267 22.0509 22.46C22.5575 21.5933 23.2442 20.9267 24.1109 20.46C24.9775 19.98 25.9442 19.74 27.0109 19.74C28.0775 19.74 29.0442 19.98 29.9109 20.46C30.7775 20.9267 31.4575 21.5933 31.9509 22.46C32.4575 23.3267 32.7109 24.3267 32.7109 25.46C32.7109 26.5933 32.4509 27.5933 31.9309 28.46C31.4242 29.3267 30.7309 30 29.8509 30.48C28.9842 30.9467 28.0109 31.18 26.9309 31.18ZM26.9309 28.74C27.4375 28.74 27.9109 28.62 28.3509 28.38C28.8042 28.1267 29.1642 27.7533 29.4309 27.26C29.6975 26.7667 29.8309 26.1667 29.8309 25.46C29.8309 24.4067 29.5509 23.6 28.9909 23.04C28.4442 22.4667 27.7709 22.18 26.9709 22.18C26.1709 22.18 25.4975 22.4667 24.9509 23.04C24.4175 23.6 24.1509 24.4067 24.1509 25.46C24.1509 26.5133 24.4109 27.3267 24.9309 27.9C25.4642 28.46 26.1309 28.74 26.9309 28.74ZM39.8448 22.22H37.9048V31H35.0648V22.22H33.8048V19.92H35.0648V19.36C35.0648 18 35.4514 17 36.2248 16.36C36.9981 15.72 38.1648 15.42 39.7248 15.46V17.82C39.0448 17.8067 38.5714 17.92 38.3048 18.16C38.0381 18.4 37.9048 18.8333 37.9048 19.46V19.92H39.8448V22.22ZM51.9593 25.22C51.9593 25.62 51.9326 25.98 51.8793 26.3H43.7793C43.846 27.1 44.126 27.7267 44.6193 28.18C45.1126 28.6333 45.7193 28.86 46.4393 28.86C47.4793 28.86 48.2193 28.4133 48.6593 27.52H51.6793C51.3593 28.5867 50.746 29.4667 49.8393 30.16C48.9326 30.84 47.8193 31.18 46.4993 31.18C45.4326 31.18 44.4726 30.9467 43.6193 30.48C42.7793 30 42.1193 29.3267 41.6393 28.46C41.1726 27.5933 40.9393 26.5933 40.9393 25.46C40.9393 24.3133 41.1726 23.3067 41.6393 22.44C42.106 21.5733 42.7593 20.9067 43.5993 20.44C44.4393 19.9733 45.406 19.74 46.4993 19.74C47.5526 19.74 48.4926 19.9667 49.3193 20.42C50.1593 20.8733 50.806 21.52 51.2593 22.36C51.726 23.1867 51.9593 24.14 51.9593 25.22ZM49.0593 24.42C49.046 23.7 48.786 23.1267 48.2793 22.7C47.7726 22.26 47.1526 22.04 46.4193 22.04C45.726 22.04 45.1393 22.2533 44.6593 22.68C44.1926 23.0933 43.906 23.6733 43.7993 24.42H49.0593Z" fill="#444343"/>
</svg>
